<svg width="198" height="225" viewBox="0 0 198 225" fill="none" xmlns="http://www.w3.org/2000/svg">
<g opacity="0.8">
<path d="M197.041 80.2031H150.379C149.526 74.1662 147.786 68.804 145.159 64.1165C142.531 59.3579 139.157 55.3096 135.038 51.9716C130.918 48.6335 126.16 46.0767 120.762 44.3011C115.436 42.5256 109.647 41.6378 103.397 41.6378C92.1045 41.6378 82.2679 44.4432 73.8872 50.054C65.5065 55.5937 59.008 63.6903 54.3915 74.3437C49.775 84.9261 47.4668 97.7812 47.4668 112.909C47.4668 128.463 49.775 141.531 54.3915 152.114C59.079 162.696 65.6131 170.686 73.9938 176.084C82.3745 181.482 92.069 184.18 103.078 184.18C109.256 184.18 114.974 183.364 120.229 181.73C125.556 180.097 130.279 177.717 134.399 174.592C138.518 171.396 141.927 167.526 144.626 162.98C147.396 158.435 149.313 153.25 150.379 147.426L197.041 147.639C195.833 157.653 192.815 167.312 187.985 176.616C183.227 185.849 176.799 194.124 168.703 201.439C160.677 208.683 151.089 214.436 139.938 218.697C128.859 222.888 116.323 224.983 102.332 224.983C82.8716 224.983 65.471 220.58 50.1301 211.773C34.8602 202.966 22.7863 190.217 13.9084 173.527C5.10163 156.837 0.698242 136.631 0.698242 112.909C0.698242 89.1165 5.17272 68.875 14.1216 52.1846C23.0704 35.4943 35.2154 22.7812 50.5563 14.0454C65.8972 5.23862 83.1556 0.835205 102.332 0.835205C114.974 0.835205 126.693 2.61077 137.488 6.16191C148.355 9.71305 157.978 14.8977 166.359 21.7159C174.739 28.463 181.558 36.7372 186.813 46.5383C192.14 56.3395 195.549 67.5611 197.041 80.2031Z" fill="#8CC8FF" style="mix-blend-mode:overlay"/>
</g>
</svg>
