<svg width="174" height="226" viewBox="0 0 174 226" fill="none" xmlns="http://www.w3.org/2000/svg">
<g opacity="0.8">
<path d="M126.323 66.5667C125.47 57.973 121.813 51.2969 115.35 46.5383C108.886 41.7798 100.115 39.4005 89.0356 39.4005C81.5072 39.4005 75.1506 40.4659 69.966 42.5966C64.7813 44.6562 60.8041 47.5327 58.0342 51.2258C55.3353 54.919 53.9859 59.1094 53.9859 63.7969C53.8438 67.7031 54.6606 71.1122 56.4361 74.0241C58.2827 76.9361 60.804 79.4574 64.0001 81.588C67.1961 83.6477 70.8893 85.4588 75.0796 87.0213C79.27 88.5128 83.7444 89.7912 88.5029 90.8565L108.105 95.544C117.622 97.6747 126.358 100.516 134.313 104.067C142.267 107.618 149.156 111.986 154.98 117.17C160.804 122.355 165.314 128.463 168.51 135.494C171.777 142.526 173.446 150.587 173.517 159.678C173.446 173.03 170.037 184.607 163.29 194.408C156.614 204.138 146.955 211.702 134.313 217.099C121.742 222.426 106.578 225.089 88.8225 225.089C71.2089 225.089 55.868 222.391 42.7998 216.993C29.8026 211.595 19.6464 203.605 12.331 193.023C5.08672 182.369 1.287 169.195 0.931885 153.499H45.5697C46.0668 160.814 48.162 166.922 51.8552 171.822C55.6194 176.652 60.6265 180.31 66.8765 182.795C73.1975 185.21 80.3353 186.418 88.2898 186.418C96.1023 186.418 102.885 185.281 108.638 183.008C114.462 180.736 118.972 177.575 122.168 173.527C125.364 169.479 126.962 164.827 126.962 159.571C126.962 154.67 125.506 150.551 122.594 147.213C119.753 143.875 115.563 141.034 110.023 138.69C104.554 136.347 97.8424 134.216 89.8879 132.298L66.1308 126.332C47.7359 121.858 33.2117 114.862 22.5583 105.345C11.9049 95.8281 6.6137 83.0085 6.68473 66.8863C6.6137 53.6761 10.1293 42.1349 17.2316 32.2628C24.4049 22.3906 34.2415 14.6846 46.7415 9.14487C59.2415 3.60509 73.4461 0.835205 89.3552 0.835205C105.548 0.835205 119.682 3.60509 131.756 9.14487C143.901 14.6846 153.347 22.3906 160.094 32.2628C166.841 42.1349 170.321 53.5696 170.534 66.5667H126.323Z" fill="#8CC8FF" style="mix-blend-mode:overlay"/>
</g>
</svg>
